<?xml version="1.0" encoding="UTF-8" standalone="no"?>
<!-- Created with Inkscape (http://www.inkscape.org/) -->

<svg
   xmlns:dc="http://purl.org/dc/elements/1.1/"
   xmlns:cc="http://creativecommons.org/ns#"
   xmlns:rdf="http://www.w3.org/1999/02/22-rdf-syntax-ns#"
   xmlns:svg="http://www.w3.org/2000/svg"
   xmlns="http://www.w3.org/2000/svg"
   version="1.2"
   width="160.26675"
   height="43.462662"
   id="svg2">
  <defs
     id="defs4" />
  <metadata
     id="metadata7">
    <rdf:RDF>
      <cc:Work
         rdf:about="">
        <dc:format>image/svg+xml</dc:format>
        <dc:type
           rdf:resource="http://purl.org/dc/dcmitype/StillImage" />
        <dc:title></dc:title>
      </cc:Work>
    </rdf:RDF>
  </metadata>
  <g
     transform="translate(7.8516912,-232.69248)"
     id="layer1"
     style="display:inline">
    <g
       id="flowRoot3167"
       style="font-size:40px;font-style:normal;font-weight:normal;line-height:125%;letter-spacing:0px;word-spacing:0px;fill:#f79000;fill-opacity:1;stroke:none;font-family:sans-serif">
      <path
         d="m 5.1171875,237.03045 0,26.66016 -2.7148437,0 0,-26.66016 L 5.1171875,237.03045 Z"
         id="path7606"
         style="fill:#00aeef;fill-opacity:1;font-family:Eurostile;-inkscape-font-specification:Eurostile" />
      <path
         d="m 12.617188,237.03045 0,3.06641 -2.7148442,0 0,-3.06641 L 12.617188,237.03045 z m 0,7.98828 0,18.67188 -2.7148442,0 0,-18.67188 L 12.617188,245.01873 Z"
         id="path7608"
         style="fill:#00aeef;fill-opacity:1;font-family:Eurostile;-inkscape-font-specification:Eurostile" />
      <path
         d="m 33.007812,245.01873 0,19.88282 q 0,3.14453 -0.898437,4.55078 -0.898438,1.42578 -2.773438,2.03125 -1.621093,0.52734 -4.335937,0.52734 -3.066406,0 -4.648438,-0.60547 -2.226562,-0.8789 -2.636718,-3.4375 -0.09766,-0.70312 -0.117188,-2.07031 l 2.636719,0 q 0.01953,1.97266 0.507812,2.67578 0.449219,0.66406 1.679688,0.91797 0.878906,0.19531 2.734375,0.19531 2.207031,0 3.320312,-0.46875 1.445313,-0.625 1.699219,-2.5 0.117188,-0.83984 0.117188,-1.58203 l 0,-3.75 -0.05859,-0.0195 q -0.390625,0.95703 -0.898438,1.36719 -1.523437,1.23047 -5.078125,1.23047 -3.710937,0 -5.449218,-1.67969 -1.367188,-1.32813 -1.660157,-3.33985 -0.273437,-1.83593 -0.273437,-4.21875 0,-4.43359 0.605469,-6.11328 0.898437,-2.5 3.242187,-3.33984 1.464844,-0.52734 3.808594,-0.52734 2.636719,0 4.179687,0.91796 1.015625,0.625 1.660157,1.89454 l 0.05859,-0.0195 L 30.29297,245.0188 33.007812,245.01873 z m -8.085937,2.05078 q -3.066406,0 -4.101563,1.17188 -0.820312,0.91797 -0.976562,2.79297 -0.117188,1.40625 -0.117188,2.98828 0,3.67187 0.410157,5.11719 0.332031,1.17187 1.035156,1.67968 1.09375,0.82032 3.769531,0.82032 3.125,0 4.199219,-1.44532 0.722656,-0.97656 0.898437,-2.63671 0.175782,-1.64063 0.175782,-3.67188 0,-2.8125 -0.332032,-4.02344 -0.527343,-1.875 -2.109375,-2.42187 Q 26.679687,247.06951 24.921875,247.06951 Z"
         id="path7610"
         style="fill:#00aeef;fill-opacity:1;font-family:Eurostile;-inkscape-font-specification:Eurostile" />
      <path
         d="m 40.507812,237.03045 0,10.29297 0.05859,0.0391 q 0.488281,-1.25 1.542969,-1.79687 1.523437,-0.82031 4.296875,-0.82031 3.007812,0 4.433594,0.74218 2.148437,1.09375 2.480468,4.04297 0.07813,0.70313 0.07813,2.22656 l 0,11.9336 -2.714843,0 0,-11.9336 q 0,-1.5625 -0.07813,-2.14843 -0.07813,-0.58594 -0.390625,-1.09375 -0.527344,-0.91797 -1.601563,-1.23047 -0.78125,-0.21485 -2.246094,-0.21485 -3.300781,0 -4.667968,1.23047 -0.976563,0.85938 -1.09375,2.61719 -0.09766,1.40625 -0.09766,2.26563 l 0,10.50781 -2.714843,0 0,-26.66016 L 40.507812,237.03045 Z"
         id="path7612"
         style="fill:#00aeef;fill-opacity:1;font-family:Eurostile;-inkscape-font-specification:Eurostile" />
      <path
         d="m 68.242187,245.01873 0,2.26563 -7.207031,0 0,11.42578 q 0,1.28906 0.273438,1.93359 0.410156,0.9961 2.324218,0.9961 1.699219,0 2.246094,-0.625 0.566406,-0.6836 0.566406,-2.92969 0,-0.35156 -0.05859,-1.01563 l 2.558593,0 q 0.01953,0.95704 0.01953,1.38672 0,2.5 -0.976563,3.82813 -1.25,1.67969 -4.375,1.67969 -2.65625,0 -3.867187,-0.85938 -1.230469,-0.89844 -1.386719,-2.85156 -0.03906,-0.42969 -0.03906,-1.54297 l 0,-11.42578 -2.578125,0 0,-2.26563 2.578125,0 0,-4.49218 2.714844,0 0,4.49218 L 68.242187,245.01873 Z"
         id="path7614"
         style="fill:#00aeef;fill-opacity:1;font-family:Eurostile;-inkscape-font-specification:Eurostile" />
      <path
         d="m 84.21875,256.95233 2.734375,0 q 0.01953,0.58593 0.01953,0.95703 0,3.35937 -1.796875,4.74609 -1.699219,1.3086 -6.113281,1.3086 -4.335938,0 -6.09375,-1.40625 -1.269531,-1.01563 -1.757813,-3.26172 -0.371093,-1.69922 -0.371093,-5.11719 0,-3.73047 0.585937,-5.46875 0.742188,-2.16797 2.597656,-3.125 1.640625,-0.83984 5.058594,-0.83984 3.613281,0 5.371094,0.99609 1.816406,1.03516 2.109375,3.67187 0.05859,0.60547 0.07813,1.69922 l -2.734375,0 q 0,-0.29297 0,-0.48828 0,-1.91406 -0.878906,-2.69531 -0.957032,-0.85938 -4.121094,-0.85938 -2.421875,0 -3.378906,0.46875 -1.113282,0.52735 -1.445313,1.99219 -0.410156,1.73828 -0.410156,4.90235 0,4.66796 1.113281,6.15234 0.507813,0.68359 2.03125,0.91797 0.957031,0.13672 2.753906,0.13672 2.011719,0 3.085938,-0.41016 0.996094,-0.39062 1.328125,-1.52344 Q 84.238281,258.84686 84.21875,256.95233 Z"
         id="path7616"
         style="font-family:Eurostile;-inkscape-font-specification:Eurostile" />
      <path
         d="m 93.613281,250.25311 -2.714844,0 q 0.03906,-2.51953 0.703125,-3.59375 0.742188,-1.17188 2.695313,-1.60156 1.464844,-0.3125 4.023437,-0.3125 3.476568,0 5.039068,0.72265 1.89453,0.85938 2.40234,2.73438 0.3125,1.23047 0.3125,3.16406 l 0,12.32422 -2.71484,0 0.21484,-2.01172 -0.0586,-0.0195 q -0.66407,0.97656 -1.52344,1.44531 -1.5625,0.85938 -4.824221,0.85938 -2.460938,0 -3.789063,-0.41016 -2.148437,-0.64453 -2.832031,-2.44141 -0.449219,-1.1914 -0.449219,-2.83203 0,-2.38281 0.878906,-3.88672 0.820313,-1.36718 3.085938,-1.8164 1.328125,-0.25391 3.203125,-0.25391 3.046875,0 4.726565,0.66406 0.82031,0.33203 1.30859,1.26953 l 0.0586,-0.0195 0,-2.26562 q 0,-2.48047 -0.50782,-3.65235 -0.41015,-0.91796 -1.73828,-1.23046 -0.99609,-0.23438 -2.656249,-0.23438 -3.105469,0 -4.082031,0.72266 -0.78125,0.5664 -0.78125,2.08984 Q 93.59375,249.84295 93.613281,250.25311 z m 4.570313,4.25781 q -3.554688,0 -4.550782,0.83984 -0.683593,0.58594 -0.683593,2.5 0,2.12891 0.703125,2.8711 0.859375,0.91797 4.023437,0.91797 3.730469,0 5.039059,-1.07422 0.78125,-0.64453 0.78125,-2.36328 0,-2.03125 -0.85937,-2.75391 Q 101.52344,254.51092 98.183594,254.51092 Z"
         id="path7618"
         style="font-family:Eurostile;-inkscape-font-specification:Eurostile" />
      <path
         d="m 125.23438,249.90155 -2.73438,0 q -0.0391,-1.50391 -0.41016,-2.08985 -0.35156,-0.54687 -1.42578,-0.74219 -0.74218,-0.13671 -2.98828,-0.13671 -2.42187,0 -3.35937,0.2539 -0.95703,0.27344 -1.25,0.95703 -0.23438,0.52735 -0.23438,1.73828 0,1.38672 0.33203,2.05079 0.3711,0.72265 1.73828,0.8789 0.33204,0.0391 2.92969,0.17578 3.57422,0.15625 4.29688,0.27344 2.22656,0.37109 3.0664,2.10938 0.58594,1.21093 0.58594,3.0664 0,2.94922 -1.48437,4.21875 -1.05469,0.87891 -2.8125,1.09375 -1.66016,0.21485 -3.78907,0.21485 -2.92968,0 -4.29687,-0.3711 -2.32422,-0.625 -3.06641,-2.38281 -0.42969,-0.99609 -0.42969,-2.38281 0,-0.41016 0.0195,-1.07422 l 2.83203,0 q -0.0586,0.60547 -0.0586,0.89844 0,1.64062 0.80078,2.4414 0.70313,0.6836 4.14063,0.6836 3.96484,0 4.74609,-1.01563 0.60547,-0.74219 0.60547,-2.38281 0,-1.64063 -0.52734,-2.30469 -0.46875,-0.60547 -2.16797,-0.625 -5.15625,-0.0586 -7.1875,-0.56641 -1.875,-0.44921 -2.55859,-1.93359 -0.46875,-0.97656 -0.46875,-2.96875 0,-3.00781 1.32812,-4.02344 1.13281,-0.83984 3.04688,-1.03515 1.60156,-0.17578 3.35937,-0.17578 3.00781,0 4.45313,0.41015 1.99218,0.56641 2.61718,2.05078 0.35157,0.82032 0.35157,2.01172 Q 125.23438,249.6867 125.23438,249.90155 Z"
         id="path7620"
         style="font-family:Eurostile;-inkscape-font-specification:Eurostile" />
      <path
         d="m 140.35156,245.01873 0,2.26563 -7.20703,0 0,11.42578 q 0,1.28906 0.27344,1.93359 0.41015,0.9961 2.32422,0.9961 1.69922,0 2.24609,-0.625 0.56641,-0.6836 0.56641,-2.92969 0,-0.35156 -0.0586,-1.01563 l 2.5586,0 q 0.0195,0.95704 0.0195,1.38672 0,2.5 -0.97656,3.82813 -1.25,1.67969 -4.375,1.67969 -2.65625,0 -3.86719,-0.85938 -1.23047,-0.89844 -1.38672,-2.85156 -0.0391,-0.42969 -0.0391,-1.54297 l 0,-11.42578 -2.57813,0 0,-2.26563 2.57813,0 0,-4.49218 2.71484,0 0,4.49218 L 140.35156,245.01873 Z"
         id="path7622"
         style="font-family:Eurostile;-inkscape-font-specification:Eurostile" />
    </g>
    <g
       transform="scale(1.332368,0.7505434)"
       id="text4022"
       style="font-size:28.44737244px;font-style:normal;font-weight:normal;line-height:125%;letter-spacing:0px;word-spacing:0px;fill:#9b9b9b;fill-opacity:1;stroke:none;font-family:sans-serif">
      <path
         d="m 63.565327,356.21817 1.206721,0 -0.02604,1.25013 0.02604,0.026 q 0.329895,-0.66847 0.781331,-0.9376 0.746604,-0.46012 1.935963,-0.46012 2.10091,0 2.561027,1.39772 l 0.02604,0 q 0.373303,-0.66847 0.894189,-0.96364 0.772649,-0.43408 1.970689,-0.43408 1.927282,0 2.543664,1.02442 0.381984,0.63374 0.381984,1.97068 l 0,5.42591 -1.206721,0 0,-5.53876 q 0,-0.81606 -0.199673,-1.22409 -0.303851,-0.62506 -1.61475,-0.62506 -1.901237,0 -2.317946,0.96364 -0.208355,0.47748 -0.208355,1.62343 l 0,4.80084 -1.206721,0 0,-5.42591 q -0.03473,-0.83341 -0.06077,-0.99836 -0.01736,-0.16495 -0.104177,-0.3299 -0.321214,-0.63374 -1.684201,-0.63374 -1.649475,0 -2.170362,0.94627 -0.321214,0.58166 -0.321214,1.72761 l 0,4.71403 -1.206721,0 L 63.565327,356.21817 Z"
         id="path7595"
         style="font-size:17.77960587px;font-variant:normal;font-weight:bold;font-stretch:normal;fill:#9b9b9b;font-family:Eurostile;-inkscape-font-specification:Eurostile" />
      <path
         d="m 83.78442,362.0087 1.241447,0 q 0.0087,0.2344 0.0087,0.33858 0,1.18067 -0.642427,1.67552 -0.798693,0.61638 -2.934329,0.61638 -1.970689,0 -2.760701,-0.62506 -0.555613,-0.45144 -0.772649,-1.51058 -0.156266,-0.73792 -0.156266,-2.153 0,-1.79706 0.286488,-2.61311 0.329895,-0.9376 1.163314,-1.3109 0.711879,-0.3299 2.274539,-0.3299 1.571342,0 2.300584,0.36463 1.0765,0.53825 1.19804,2.54366 0.02604,0.45143 0.03473,1.5887 l -5.972837,0 q 0,1.52794 0.243081,2.18773 0.225718,0.6077 1.102544,0.76397 0.381984,0.0695 1.059137,0.0695 1.50189,0 1.97937,-0.30385 0.217036,-0.13891 0.286488,-0.46012 Q 83.78442,362.57299 83.78442,362.0087 z m 0,-2.36135 q -0.02604,-1.3109 -0.182311,-1.75366 -0.199673,-0.55561 -0.885507,-0.72924 -0.390666,-0.0955 -1.206722,-0.0955 -1.093862,0 -1.580023,0.19099 -0.703198,0.2778 -0.833419,1.46716 -0.03473,0.3299 -0.02605,0.92024 L 83.78442,359.64735 Z"
         id="path7597"
         style="font-size:17.77960587px;font-variant:normal;font-weight:bold;font-stretch:normal;fill:#9b9b9b;font-family:Eurostile;-inkscape-font-specification:Eurostile" />
      <path
         d="m 93.872263,352.66746 0,11.85018 -1.206721,0 0.06077,-1.0765 -0.03473,-0.009 q -0.277806,0.58166 -0.816056,0.85078 -0.703198,0.35594 -1.849149,0.35594 -1.788378,0 -2.526301,-0.83342 -0.529568,-0.58166 -0.65979,-1.58002 -0.12154,-0.87683 -0.12154,-1.97069 0,-1.58871 0.269124,-2.39608 0.390666,-1.16332 1.362988,-1.51926 0.651108,-0.24308 1.588705,-0.24308 1.302217,0 2.057503,0.39935 0.442754,0.2344 0.642427,0.77265 l 0.02604,-0.0174 0,-4.58381 L 93.872263,352.66746 z m -3.602801,4.46227 q -1.284854,0 -1.727608,0.43407 -0.555613,0.54693 -0.555613,2.6218 0,2.50025 0.625064,3.01246 0.503524,0.40803 1.67552,0.40803 1.310898,0 1.823104,-0.49485 0.546931,-0.52956 0.546931,-2.98641 0,-1.88388 -0.572976,-2.4829 Q 91.589042,357.12973 90.269462,357.12973 Z"
         id="path7599"
         style="font-size:17.77960587px;font-variant:normal;font-weight:bold;font-stretch:normal;fill:#9b9b9b;font-family:Eurostile;-inkscape-font-specification:Eurostile" />
      <path
         d="m 97.20594,352.66746 0,1.36299 -1.206722,0 0,-1.36299 L 97.20594,352.66746 z m 0,3.55071 0,8.29947 -1.206722,0 0,-8.29947 L 97.20594,356.21817 Z"
         id="path7601"
         style="font-size:17.77960587px;font-variant:normal;font-weight:bold;font-stretch:normal;fill:#9b9b9b;font-family:Eurostile;-inkscape-font-specification:Eurostile" />
      <path
         d="m 100.60039,358.5448 -1.206726,0 q 0.01736,-1.1199 0.312532,-1.59738 0.329894,-0.52089 1.198044,-0.71188 0.6511,-0.13891 1.78837,-0.13891 1.5453,0 2.23982,0.32122 0.8421,0.38198 1.06782,1.2154 0.1389,0.54693 0.1389,1.4064 l 0,5.47799 -1.20672,0 0.0955,-0.89419 -0.026,-0.009 q -0.29517,0.43407 -0.67715,0.64243 -0.69452,0.38198 -2.14432,0.38198 -1.09386,0 -1.6842,-0.18231 -0.954961,-0.28649 -1.258812,-1.08518 -0.199673,-0.52957 -0.199673,-1.25881 0,-1.05914 0.390665,-1.72761 0.364621,-0.6077 1.37167,-0.80737 0.59034,-0.11286 1.42376,-0.11286 1.3543,0 2.10091,0.29517 0.36462,0.14758 0.58165,0.56429 l 0.026,-0.009 0,-1.00705 q 0,-1.10254 -0.22572,-1.62343 -0.18231,-0.40803 -0.77265,-0.54693 -0.44275,-0.10418 -1.18068,-0.10418 -1.38035,0 -1.81442,0.32121 -0.34726,0.25177 -0.34726,0.92892 Q 100.5917,358.36249 100.60039,358.5448 z m 2.03145,1.89256 q -1.58002,0 -2.02277,0.3733 -0.30385,0.26044 -0.30385,1.11123 0,0.94627 0.31253,1.27617 0.38198,0.40803 1.78838,0.40803 1.65815,0 2.23981,-0.47748 0.34726,-0.28649 0.34726,-1.05046 0,-0.90287 -0.38199,-1.22408 Q 104.11637,360.43736 102.63184,360.43736 Z"
         id="path7603"
         style="font-size:17.77960587px;font-variant:normal;font-weight:bold;font-stretch:normal;fill:#9b9b9b;font-family:Eurostile;-inkscape-font-specification:Eurostile" />
    </g>
  </g>
</svg>
