<svg width="155.26675" height="43.462662" xmlns="http://www.w3.org/2000/svg">
 <defs>
  <filter id="filter5542" height="2.069412" width="1.309447" y="-0.534706" x="-0.154723">
   <feGaussianBlur stdDeviation="9.51202" id="feGaussianBlur5544"/>
  </filter>
 </defs>
 <metadata id="metadata7">image/svg+xml</metadata>
 <g>
  <title>Layer 1</title>
  <g display="inline" id="layer3">
   <path fill="#f2f2f2" filter="url(#filter5542)" id="path5524" d="m150.375031,24.175964a73.773087,21.347111 0 1 1 -147.546179,0a73.773087,21.347111 0 1 1 147.546179,0z"/>
  </g>
  <g display="inline" id="layer1">
   <g font-size="40px" font-style="normal" font-weight="normal" fill="#f79000" font-family="sans-serif" id="flowRoot3167">
    <path fill="#00aeef" id="path7461" d="m12.968882,4.337982l0,26.660156l-2.71485,0l0,-26.660156l2.71485,0z"/>
    <path fill="#00aeef" id="path7463" d="m20.468882,4.337982l0,3.066406l-2.714849,0l0,-3.066406l2.714849,0zm0,7.988281l0,18.671875l-2.714849,0l0,-18.671875l2.714849,-0.000015l0,0.000015z"/>
    <path fill="#00aeef" id="path7465" d="m40.859501,12.326248l0,19.882828q0,3.144531 -0.89843,4.550781q-0.898441,1.425781 -2.773441,2.03125q-1.621098,0.527313 -4.335938,0.527313q-3.066412,0 -4.648439,-0.605469q-2.226561,-0.878876 -2.636721,-3.4375q-0.09766,-0.703094 -0.11718,-2.070282l2.636719,0q0.019531,1.972656 0.507811,2.675781q0.449221,0.664032 1.679689,0.917969q0.878901,0.195282 2.734371,0.195282q2.207027,0 3.320309,-0.46875q1.44532,-0.625 1.699219,-2.5q0.117191,-0.839813 0.117191,-1.582031l0,-3.749969l-0.05859,-0.019501q-0.390629,0.957001 -0.898441,1.367188q-1.523438,1.230469 -5.078117,1.230469q-3.710941,0 -5.449223,-1.679688q-1.367188,-1.328156 -1.66016,-3.339874q-0.273439,-1.835907 -0.273439,-4.218735q0,-4.433594 0.605471,-6.113281q0.898441,-2.5 3.242191,-3.339844q1.46484,-0.527344 3.80859,-0.527344q2.636719,0 4.179688,0.917969q1.015633,0.625 1.66016,1.894531l0.05859,-0.019501l-0.136719,-2.519516l2.71484,-0.000076zm-8.08593,2.050781q-3.066408,0 -4.10157,1.171875q-0.820309,0.917969 -0.976559,2.792969q-0.117191,1.40625 -0.117191,2.988281q0,3.67186 0.410162,5.117203q0.332029,1.171844 1.035158,1.679657q1.09375,0.820343 3.769531,0.820343q3.125,0 4.199219,-1.445343q0.722649,-0.976563 0.89843,-2.636688q0.175789,-1.64064 0.175789,-3.67189q0,-2.8125 -0.332039,-4.023438q-0.52734,-1.875 -2.109371,-2.421875q-1.09375,-0.371094 -2.851559,-0.371094z"/>
    <path fill="#00aeef" id="path7467" d="m48.359501,4.337982l0,10.292969l0.05859,0.039108q0.488281,-1.25 1.542973,-1.796875q1.523438,-0.820313 4.296879,-0.820313q3.007809,0 4.43359,0.742188q2.148441,1.09375 2.480469,4.042969q0.078133,0.703125 0.078133,2.226563l0,11.933609l-2.71484,0l0,-11.933609q0,-1.5625 -0.078133,-2.148438q-0.078129,-0.585938 -0.390629,-1.09375q-0.52734,-0.917969 -1.601559,-1.230469q-0.78125,-0.214844 -2.246101,-0.214844q-3.300781,0 -4.667961,1.230469q-0.97657,0.859375 -1.09375,2.617188q-0.09766,1.40625 -0.09766,2.265625l0,10.507828l-2.714848,0l0,-26.660172l2.714848,-0.000046z"/>
    <path fill="#00aeef" id="path7469" d="m76.09388,12.326248l0,2.265625l-7.207031,0l0,11.425797q0,1.289032 0.27343,1.933563q0.410164,0.996124 2.324219,0.996124q1.699226,0 2.246101,-0.625q0.566406,-0.683624 0.566406,-2.929688q0,-0.351563 -0.058594,-1.015656l2.558601,0q0.019531,0.957062 0.019531,1.386719q0,2.5 -0.97657,3.828156q-1.25,1.679688 -4.375,1.679688q-2.65625,0 -3.86718,-0.859406q-1.230476,-0.898438 -1.386726,-2.851532q-0.039055,-0.429688 -0.039055,-1.542969l0,-11.425797l-2.578129,0l0,-2.265625l2.578129,0l0,-4.492188l2.714836,0l0,4.492188l7.207031,0z"/>
    <path id="path7471" d="m92.070442,24.259857l2.734383,0q0.019524,0.585938 0.019524,0.957031q0,3.359375 -1.796875,4.746094q-1.699219,1.308594 -6.113281,1.308594q-4.335938,0 -6.09375,-1.40625q-1.269531,-1.015625 -1.757813,-3.261719q-0.371094,-1.699219 -0.371094,-5.117188q0,-3.730469 0.585938,-5.46875q0.742188,-2.167969 2.597656,-3.125q1.640625,-0.839844 5.058594,-0.839844q3.613281,0 5.371086,0.996094q1.816414,1.035156 2.109383,3.67186q0.058594,0.605469 0.078133,1.699219l-2.734383,0q0,-0.292969 0,-0.488266q0,-1.914063 -0.878899,-2.695313q-0.957031,-0.85939 -4.121101,-0.85939q-2.421867,0 -3.378899,0.46875q-1.113281,0.527359 -1.44532,1.992203q-0.410149,1.738266 -0.410149,4.902344q0,4.667969 1.113274,6.152344q0.507813,0.683594 2.03125,0.917969q0.957031,0.136719 2.753914,0.136719q2.011711,0 3.08593,-0.410156q0.996101,-0.390625 1.328133,-1.523438q0.253899,-0.859375 0.234367,-2.753906z"/>
    <path id="path7473" d="m101.464973,17.560638l-2.714844,0q0.039063,-2.519531 0.703125,-3.59375q0.742188,-1.17189 2.69532,-1.601563q1.464836,-0.3125 4.02343,-0.3125q3.47657,0 5.03907,0.722656q1.894524,0.859375 2.402336,2.734375q0.3125,1.230469 0.3125,3.164063l0,12.324219l-2.714836,0l0.214836,-2.011719l-0.058601,-0.019501q-0.66407,0.976563 -1.523438,1.445313q-1.5625,0.859375 -4.824219,0.859375q-2.460938,0 -3.789063,-0.410156q-2.148438,-0.644531 -2.832031,-2.441406q-0.449219,-1.191406 -0.449219,-2.832031q0,-2.382813 0.878899,-3.886734q0.82032,-1.367172 3.085945,-1.816391q1.328125,-0.253906 3.203125,-0.253906q3.046875,0 4.726563,0.664047q0.820313,0.332031 1.308594,1.269531l0.058594,-0.019501l0,-2.26561q0,-2.480469 -0.50782,-3.652359q-0.410149,-0.917953 -1.738274,-1.230453q-0.996094,-0.234375 -2.65625,-0.234375q-3.105476,0 -4.082031,0.722656q-0.78125,0.566391 -0.78125,2.089844q0.000008,0.17572 0.019539,0.585876zm4.570313,4.257813q-3.554688,0 -4.550781,0.839828q-0.683594,0.585953 -0.683594,2.500015q0,2.128906 0.703125,2.871094q0.859375,0.917969 4.023438,0.917969q3.730469,0 5.039063,-1.074219q0.78125,-0.644531 0.78125,-2.363281q0,-2.03125 -0.859375,-2.753906q-1.113281,-0.9375 -4.453125,-0.9375z"/>
    <path id="path7475" d="m133.086075,17.209076l-2.73439,0q-0.039093,-1.503906 -0.410156,-2.089844q-0.351563,-0.546875 -1.425781,-0.742203q-0.742172,-0.136703 -2.988274,-0.136703q-2.421875,0 -3.359375,0.253906q-0.957024,0.273438 -1.25,0.957016q-0.234375,0.527359 -0.234375,1.738281q0,1.386719 0.332031,2.050797q0.371094,0.722656 1.738281,0.878906q0.332039,0.039093 2.929688,0.175766q3.574211,0.15625 4.296867,0.273453q2.226563,0.371078 3.066406,2.109375q0.585938,1.210938 0.585938,3.066406q0,2.949219 -1.48436,4.21875q-1.054703,0.878906 -2.8125,1.09375q-1.660164,0.214844 -3.78907,0.214844q-2.92968,0 -4.296875,-0.371094q-2.324219,-0.625 -3.066406,-2.382813q-0.429688,-0.996094 -0.429688,-2.382813q0,-0.410156 0.019493,-1.074219l2.832031,0q-0.058601,0.605469 -0.058601,0.898438q0,1.640625 0.800781,2.441406q0.703133,0.683594 4.140633,0.683594q3.964828,0 4.746078,-1.015625q0.605484,-0.742188 0.605484,-2.382813q0,-1.640625 -0.527344,-2.304688q-0.46875,-0.605469 -2.167969,-0.625q-5.15625,-0.058609 -7.1875,-0.566422q-1.875,-0.449203 -2.558594,-1.933578q-0.46875,-0.976563 -0.46875,-2.96875q0,-3.007813 1.328125,-4.023453q1.132805,-0.839828 3.046875,-1.035141q1.601563,-0.175781 3.359375,-0.175781q3.007797,0 4.453125,0.410156q1.992172,0.566406 2.617172,2.050766q0.351578,0.820328 0.351578,2.011734q0.000046,0.46875 0.000046,0.683594z"/>
    <path id="path7477" d="m148.203247,12.326248l0,2.265625l-7.207031,0l0,11.425797q0,1.289032 0.273438,1.933563q0.410156,0.996124 2.324219,0.996124q1.699219,0 2.246094,-0.625q0.566406,-0.683624 0.566406,-2.929688q0,-0.351563 -0.058594,-1.015656l2.558594,0q0.019501,0.957062 0.019501,1.386719q0,2.5 -0.976563,3.828156q-1.25,1.679688 -4.375,1.679688q-2.65625,0 -3.867188,-0.859406q-1.230469,-0.898438 -1.386719,-2.851532q-0.039093,-0.429688 -0.039093,-1.542969l0,-11.425797l-2.57814,0l0,-2.265625l2.57814,0l0,-4.492188l2.714828,0l0,4.492188l7.207108,0z"/>
   </g>
   <text font-size="40px" font-style="normal" font-weight="normal" fill="#000000" font-family="sans-serif" xml:space="preserve" id="text4018" y="38.930576" x="85.705855"/>
   <g font-size="28.447372px" font-style="normal" font-weight="normal" fill="#9b9b9b" font-family="sans-serif" id="text4022" transform="translate(7.85169 -232.692) scale(1.33237 0.750543)">
    <path fill="#9b9b9b" id="path7480" d="m63.565331,356.21817l1.206718,0l-0.026039,1.250122l0.026039,0.026001q0.329887,-0.668457 0.781334,-0.937592q0.746597,-0.460114 1.935959,-0.460114q2.100906,0 2.561028,1.397705l0.026039,0q0.373299,-0.668457 0.894188,-0.963623q0.772652,-0.434082 1.970695,-0.434082q1.927277,0 2.543655,1.024414q0.381981,0.633728 0.381981,1.970673l0,5.425903l-1.206718,0l0,-5.538757q0,-0.81604 -0.199669,-1.224091q-0.303848,-0.625061 -1.614754,-0.625061q-1.901237,0 -2.317947,0.963654q-0.208351,0.477478 -0.208351,1.623413l0,4.800842l-1.206718,0l0,-5.425903q-0.034729,-0.833405 -0.060768,-0.998352q-0.017365,-0.164948 -0.104179,-0.329895q-0.321213,-0.633759 -1.684204,-0.633759q-1.649467,0 -2.170357,0.946289q-0.32122,0.581665 -0.32122,1.7276l0,4.71402l-1.206722,0l0.000011,-8.299408z"/>
    <path fill="#9b9b9b" id="path7482" d="m83.784424,362.008698l1.241447,0q0.008698,0.234406 0.008698,0.338593q0,1.180664 -0.642426,1.675507q-0.798691,0.616394 -2.934334,0.616394q-1.97068,0 -2.760696,-0.625061q-0.555611,-0.451447 -0.772652,-1.51059q-0.156258,-0.737915 -0.156258,-2.153015q0,-1.797058 0.286484,-2.613098q0.329895,-0.937592 1.163315,-1.310883q0.711876,-0.329926 2.274536,-0.329926q1.571342,0 2.300583,0.364655q1.0765,0.538239 1.198036,2.54364q0.026039,0.451447 0.034729,1.588715l-5.972824,0q0,1.527924 0.24308,2.187714q0.225716,0.607697 1.102539,0.763977q0.381989,0.069489 1.059135,0.069489q1.501892,0 1.97937,-0.303833q0.217033,-0.138916 0.286491,-0.460114q0.060745,-0.277863 0.060745,-0.842163zm0,-2.361359q-0.026047,-1.310883 -0.182312,-1.753662q-0.199669,-0.555603 -0.885498,-0.729218q-0.390671,-0.09552 -1.206734,-0.09552q-1.093857,0 -1.580017,0.19101q-0.703201,0.277802 -0.83342,1.467163q-0.034737,0.329895 -0.026054,0.920227l4.714035,0z"/>
    <path fill="#9b9b9b" id="path7484" d="m93.872261,352.66745l0,11.850189l-1.206718,0l0.060768,-1.076508l-0.034729,-0.009003q-0.277809,0.581665 -0.816063,0.850769q-0.703186,0.355957 -1.849136,0.355957q-1.788383,0 -2.526314,-0.833435q-0.529556,-0.581665 -0.65979,-1.580017q-0.121536,-0.876831 -0.121536,-1.970673q0,-1.588715 0.269127,-2.396088q0.390663,-1.16333 1.362991,-1.519257q0.6511,-0.243073 1.588699,-0.243073q1.302223,0 2.057503,0.399323q0.442757,0.234406 0.642426,0.772675l0.026039,-0.017426l0,-4.583801l1.206734,0.000366zm-3.602798,4.46228q-1.284851,0 -1.727615,0.434052q-0.555611,0.546936 -0.555611,2.621796q0,2.500275 0.625061,3.012482q0.503532,0.40802 1.675522,0.40802q1.310898,0 1.823112,-0.494843q0.546928,-0.529572 0.546928,-2.98642q0,-1.883881 -0.572983,-2.48291q-0.494835,-0.512177 -1.814415,-0.512177z"/>
    <path fill="#9b9b9b" id="path7486" d="m97.20594,352.66745l0,1.362976l-1.206718,0l0,-1.362976l1.206718,0zm0,3.55072l0,8.299469l-1.206718,0l0,-8.299469l1.206718,0z"/>
    <path fill="#9b9b9b" id="path7488" d="m100.600388,358.5448l-1.206726,0q0.017357,-1.119904 0.312531,-1.597382q0.329895,-0.520874 1.198051,-0.711884q0.6511,-0.138916 1.788368,-0.138916q1.545296,0 2.239815,0.321228q0.842102,0.381989 1.067825,1.215393q0.138901,0.546936 0.138901,1.406403l0,5.477997l-1.206726,0l0.095505,-0.894196l-0.026001,-0.009003q-0.295174,0.434082 -0.677147,0.642426q-0.694527,0.381989 -2.144325,0.381989q-1.093857,0 -1.684196,-0.182312q-0.954964,-0.286469 -1.258812,-1.085175q-0.199677,-0.529572 -0.199677,-1.25882q0,-1.059143 0.390663,-1.7276q0.364624,-0.607697 1.371674,-0.807373q0.59034,-0.112854 1.423759,-0.112854q1.354301,0 2.100914,0.295166q0.364616,0.147583 0.58165,0.564301l0.025993,-0.009003l0,-1.00705q0,-1.102539 -0.225716,-1.623444q-0.182312,-0.40802 -0.772652,-0.546936q-0.442749,-0.104156 -1.180679,-0.104156q-1.380348,0 -1.814423,0.321198q-0.34726,0.25177 -0.34726,0.928925q0,0.078766 0.00869,0.261078zm2.031456,1.892548q-1.580025,0 -2.022774,0.373322q-0.303848,0.260437 -0.303848,1.111206q0,0.946289 0.312531,1.276184q0.381981,0.40802 1.788376,0.40802q1.65815,0 2.239815,-0.477478q0.34726,-0.286469 0.34726,-1.050446q0,-0.902863 -0.381989,-1.224091q-0.494843,-0.416718 -1.97937,-0.416718z"/>
   </g>
  </g>
 </g>
</svg>